<?xml version="1.0" standalone="no"?>
<!DOCTYPE svg PUBLIC "-//W3C//DTD SVG 20010904//EN"
 "http://www.w3.org/TR/2001/REC-SVG-20010904/DTD/svg10.dtd">
<svg version="1.0" xmlns="http://www.w3.org/2000/svg"
 width="533.000000pt" height="533.000000pt" viewBox="0 0 533.000000 533.000000"
 preserveAspectRatio="xMidYMid meet">
<metadata>
Created by potrace 1.14, written by Peter Selinger 2001-2017
</metadata>
<g transform="translate(0.000000,533.000000) scale(0.100000,-0.100000)"
fill="#000000" stroke="none">
<path d="M2623 4480 c-369 -74 -655 -284 -811 -596 -82 -163 -122 -335 -122
-529 0 -319 129 -617 360 -826 115 -104 243 -182 390 -235 25 -9 92 -27 150
-40 92 -20 127 -23 285 -20 146 2 195 7 260 24 175 47 274 92 381 173 38 28
71 53 74 56 6 6 -21 46 -60 90 -20 21 -80 91 -134 156 l-98 118 -32 -21 c-131
-87 -252 -123 -411 -123 -97 0 -121 4 -204 32 -231 78 -390 269 -422 506 -26
195 6 353 99 497 177 275 543 357 871 197 l85 -41 24 28 c14 16 79 89 146 162
66 74 123 138 125 144 4 12 -19 32 -99 85 -233 155 -574 220 -857 163z"/>
<path d="M564 1890 c-130 -26 -266 -154 -292 -275 -21 -95 -22 -120 -8 -186
29 -136 101 -228 223 -286 64 -31 82 -35 160 -36 98 -2 194 24 247 67 l30 23
-50 60 -51 61 -59 -25 c-94 -40 -195 -23 -255 44 -46 51 -60 83 -66 151 -4 60
-2 73 24 122 18 34 45 66 72 85 40 28 49 30 130 30 68 0 93 -4 116 -19 l28
-19 53 59 c29 33 53 62 54 65 0 10 -96 59 -147 74 -52 16 -143 18 -209 5z"/>
<path d="M3292 1508 l3 -393 80 0 c75 0 79 1 85 23 l5 24 26 -21 c33 -26 114
-44 157 -36 94 17 176 77 214 153 19 39 23 63 23 142 0 115 -20 167 -89 227
-84 74 -195 90 -289 42 -21 -10 -40 -19 -42 -19 -2 0 -6 55 -7 123 l-3 122
-83 3 -82 3 2 -393z m390 -2 c41 -39 51 -81 36 -143 -14 -60 -55 -95 -118
-101 -41 -4 -56 0 -84 18 -72 50 -79 182 -13 235 25 20 43 25 88 25 50 0 60
-3 91 -34z"/>
<path d="M4745 1818 c-2 -7 -6 -38 -7 -68 l-3 -55 -42 -3 -43 -3 0 -70 0 -69
39 0 c26 0 41 -5 45 -16 3 -9 6 -82 6 -162 0 -166 10 -198 70 -239 28 -19 46
-23 114 -23 51 0 87 5 94 12 7 7 12 41 12 81 l0 69 -39 -7 c-23 -4 -48 -2 -60
5 -20 10 -21 19 -21 145 l0 135 60 0 60 0 0 70 0 70 -60 0 -59 0 -3 68 -3 67
-78 3 c-56 2 -79 -1 -82 -10z"/>
<path d="M1351 1693 c-46 -6 -100 -44 -128 -90 l-23 -38 0 63 0 62 -90 0 -90
0 2 -287 3 -288 65 -3 c115 -5 110 -12 110 140 0 112 3 138 20 174 28 57 82
92 156 102 l59 7 0 80 c0 89 1 89 -84 78z"/>
<path d="M2517 1689 c-20 -5 -49 -16 -62 -25 -24 -16 -25 -15 -25 5 0 20 -5
21 -90 21 l-90 0 2 -392 3 -393 85 0 85 0 3 127 3 127 33 -23 c49 -33 123 -39
195 -17 84 26 125 61 166 143 32 65 35 76 31 147 -6 134 -69 228 -180 270 -60
22 -97 25 -159 10z m103 -161 c87 -36 91 -197 7 -248 -105 -64 -219 22 -202
152 13 95 97 136 195 96z"/>
<path d="M4201 1689 c-56 -14 -106 -45 -153 -97 -52 -57 -69 -104 -70 -188 -2
-171 124 -298 297 -298 92 0 157 28 224 99 140 147 87 391 -102 470 -49 20
-141 27 -196 14z m139 -161 c47 -20 65 -56 65 -129 0 -72 -13 -97 -67 -125
-72 -37 -167 3 -187 81 -12 47 2 126 27 148 50 46 96 53 162 25z"/>
<path d="M1513 1658 c16 -38 99 -223 127 -283 10 -22 38 -85 63 -140 l44 -101
-20 -44 c-12 -25 -33 -72 -49 -104 -41 -86 -41 -86 56 -86 l84 0 12 33 c7 17
26 61 42 97 16 36 46 101 65 145 51 113 71 159 152 337 39 86 71 161 71 167 0
7 -31 11 -85 11 -72 0 -87 -3 -92 -17 -3 -10 -26 -65 -51 -123 -93 -220 -103
-236 -118 -187 -3 12 -19 49 -34 82 -15 33 -44 102 -66 152 l-39 93 -88 0 -87
0 13 -32z"/>
</g>
</svg>
